<svg width="2750" height="450" viewBox="0 0 2750 450" fill="none" xmlns="http://www.w3.org/2000/svg">
<path d="M0 150H50V200H0V150Z" fill="#FF0000"/>
<path d="M0 200H50V250H0V200Z" fill="#FF0000"/>
<path d="M0 250H50V300H0V250Z" fill="#FF0000"/>
<path d="M0 300H50V350H0V300Z" fill="#FF0000"/>
<path d="M0 350H50V400H0V350Z" fill="#FF0000"/>
<path d="M0 400H50V450H0V400Z" fill="#FF0000"/>
<path d="M50 150H100V200H50V150Z" fill="#FF1E00"/>
<path d="M50 200H100V250H50V200Z" fill="#FF1E00"/>
<path d="M50 250H100V300H50V250Z" fill="#FF1E00"/>
<path d="M50 300H100V350H50V300Z" fill="#FF1E00"/>
<path d="M50 350H100V400H50V350Z" fill="#FF1E00"/>
<path d="M50 400H100V450H50V400Z" fill="#FF1E00"/>
<path d="M100 350H150V400H100V350Z" fill="#FF3C00"/>
<path d="M100 400H150V450H100V400Z" fill="#FF3C00"/>
<path d="M150 350H200V400H150V350Z" fill="#FF5900"/>
<path d="M150 400H200V450H150V400Z" fill="#FF5900"/>
<path d="M200 150H250V200H200V150Z" fill="#FF7700"/>
<path d="M200 200H250V250H200V200Z" fill="#FF7700"/>
<path d="M200 250H250V300H200V250Z" fill="#FF7700"/>
<path d="M200 300H250V350H200V300Z" fill="#FF7700"/>
<path d="M200 350H250V400H200V350Z" fill="#FF7700"/>
<path d="M250 150H300V200H250V150Z" fill="#FF9500"/>
<path d="M250 200H300V250H250V200Z" fill="#FF9500"/>
<path d="M250 250H300V300H250V250Z" fill="#FF9500"/>
<path d="M250 300H300V350H250V300Z" fill="#FF9500"/>
<path d="M250 350H300V400H250V350Z" fill="#FF9500"/>
<path d="M250 400H300V450H250V400Z" fill="#FF9500"/>
<path d="M700 200H750V250H700V200Z" fill="#99FF00"/>
<path d="M700 250H750V300H700V250Z" fill="#99FF00"/>
<path d="M700 300H750V350H700V300Z" fill="#99FF00"/>
<path d="M700 350H750V400H700V350Z" fill="#99FF00"/>
<path d="M750 150H800V200H750V150Z" fill="#7BFF00"/>
<path d="M750 200H800V250H750V200Z" fill="#7BFF00"/>
<path d="M800 150H850V200H800V150Z" fill="#5EFF00"/>
<path d="M800 200H850V250H800V200Z" fill="#5EFF00"/>
<path d="M850 150H900V200H850V150Z" fill="#40FF00"/>
<path d="M850 200H900V250H850V200Z" fill="#40FF00"/>
<path d="M900 150H950V200H900V150Z" fill="#22FF00"/>
<path d="M900 200H950V250H900V200Z" fill="#22FF00"/>
<path d="M950 150H1000V200H950V150Z" fill="#04FF00"/>
<path d="M950 200H1000V250H950V200Z" fill="#04FF00"/>
<path d="M800 350H850V400H800V350Z" fill="#5EFF00"/>
<path d="M800 400H850V450H800V400Z" fill="#5EFF00"/>
<path d="M850 350H900V400H850V350Z" fill="#40FF00"/>
<path d="M850 400H900V450H850V400Z" fill="#40FF00"/>
<path d="M900 350H950V400H900V350Z" fill="#22FF00"/>
<path d="M900 400H950V450H900V400Z" fill="#22FF00"/>
<path d="M950 350H1000V400H950V350Z" fill="#04FF00"/>
<path d="M950 400H1000V450H950V400Z" fill="#04FF00"/>
<path d="M750 250H800V300H750V250Z" fill="#7BFF00"/>
<path d="M750 300H800V350H750V300Z" fill="#7BFF00"/>
<path d="M750 350H800V400H750V350Z" fill="#7BFF00"/>
<path d="M750 400H800V450H750V400Z" fill="#7BFF00"/>
<path d="M1050 150H1100V200H1050V150Z" fill="#00FF1A"/>
<path d="M1050 200H1100V250H1050V200Z" fill="#00FF1A"/>
<path d="M1050 250H1100V300H1050V250Z" fill="#00FF1A"/>
<path d="M1050 300H1100V350H1050V300Z" fill="#00FF1A"/>
<path d="M1050 350H1100V400H1050V350Z" fill="#00FF1A"/>
<path d="M1050 400H1100V450H1050V400Z" fill="#00FF1A"/>
<path d="M1100 150H1150V200H1100V150Z" fill="#00FF37"/>
<path d="M1100 200H1150V250H1100V200Z" fill="#00FF37"/>
<path d="M1150 200H1200V250H1150V200Z" fill="#00FF55"/>
<path d="M1200 150H1250V200H1200V150Z" fill="#00FF73"/>
<path d="M1200 200H1250V250H1200V200Z" fill="#00FF73"/>
<path d="M1100 250H1150V300H1100V250Z" fill="#00FF37"/>
<path d="M1050 0H1100V50H1050V0Z" fill="#00FF1A"/>
<path d="M1050 50H1100V100H1050V50Z" fill="#00FF1A"/>
<path d="M1050 100H1100V150H1050V100Z" fill="#00FF1A"/>
<path d="M1100 0H1150V50H1100V0Z" fill="#00FF37"/>
<path d="M1100 50H1150V100H1100V50Z" fill="#00FF37"/>
<path d="M1100 100H1150V150H1100V100Z" fill="#00FF37"/>
<path d="M1100 300H1150V350H1100V300Z" fill="#00FF37"/>
<path d="M1100 350H1150V400H1100V350Z" fill="#00FF37"/>
<path d="M1100 400H1150V450H1100V400Z" fill="#00FF37"/>
<path d="M1250 150H1300V200H1250V150Z" fill="#00FF91"/>
<path d="M1250 200H1300V250H1250V200Z" fill="#00FF91"/>
<path d="M1250 250H1300V300H1250V250Z" fill="#00FF91"/>
<path d="M1250 300H1300V350H1250V300Z" fill="#00FF91"/>
<path d="M1250 350H1300V400H1250V350Z" fill="#00FF91"/>
<path d="M1250 400H1300V450H1250V400Z" fill="#00FF91"/>
<path d="M1300 150H1350V200H1300V150Z" fill="#00FFAE"/>
<path d="M1300 200H1350V250H1300V200Z" fill="#00FFAE"/>
<path d="M1300 250H1350V300H1300V250Z" fill="#00FFAE"/>
<path d="M1300 300H1350V350H1300V300Z" fill="#00FFAE"/>
<path d="M1300 350H1350V400H1300V350Z" fill="#00FFAE"/>
<path d="M1300 400H1350V450H1300V400Z" fill="#00FFAE"/>
<path d="M1400 150H1450V200H1400V150Z" fill="#00FFCC"/>
<path d="M1400 200H1450V250H1400V200Z" fill="#00FFCC"/>
<path d="M1400 250H1450V300H1400V250Z" fill="#00FFCC"/>
<path d="M1400 300H1450V350H1400V300Z" fill="#00FFCC"/>
<path d="M1400 350H1450V400H1400V350Z" fill="#00FFCC"/>
<path d="M1400 400H1450V450H1400V400Z" fill="#00FFCC"/>
<path d="M1450 150H1500V200H1450V150Z" fill="#00FFEA"/>
<path d="M1450 200H1500V250H1450V200Z" fill="#00FFEA"/>
<path d="M1450 250H1500V300H1450V250Z" fill="#00FFEA"/>
<path d="M1450 300H1500V350H1450V300Z" fill="#00FFEA"/>
<path d="M1450 350H1500V400H1450V350Z" fill="#00FFEA"/>
<path d="M1450 400H1500V450H1450V400Z" fill="#00FFEA"/>
<path d="M1500 350H1550V400H1500V350Z" fill="#00F7FF"/>
<path d="M1500 400H1550V450H1500V400Z" fill="#00F7FF"/>
<path d="M1550 350H1600V400H1550V350Z" fill="#00D9FF"/>
<path d="M1550 400H1600V450H1550V400Z" fill="#00D9FF"/>
<path d="M1600 150H1650V200H1600V150Z" fill="#00BBFF"/>
<path d="M1600 200H1650V250H1600V200Z" fill="#00BBFF"/>
<path d="M1600 250H1650V300H1600V250Z" fill="#00BBFF"/>
<path d="M1600 300H1650V350H1600V300Z" fill="#00BBFF"/>
<path d="M1600 350H1650V400H1600V350Z" fill="#00BBFF"/>
<path d="M1650 150H1700V200H1650V150Z" fill="#009DFF"/>
<path d="M1650 200H1700V250H1650V200Z" fill="#009DFF"/>
<path d="M1650 250H1700V300H1650V250Z" fill="#009DFF"/>
<path d="M1650 300H1700V350H1650V300Z" fill="#009DFF"/>
<path d="M1650 350H1700V400H1650V350Z" fill="#009DFF"/>
<path d="M1650 400H1700V450H1650V400Z" fill="#009DFF"/>
<path d="M1750 150H1800V200H1750V150Z" fill="#0080FF"/>
<path d="M1750 200H1800V250H1750V200Z" fill="#0080FF"/>
<path d="M1750 250H1800V300H1750V250Z" fill="#0080FF"/>
<path d="M1750 300H1800V350H1750V300Z" fill="#0080FF"/>
<path d="M1750 350H1800V400H1750V350Z" fill="#0080FF"/>
<path d="M1750 400H1800V450H1750V400Z" fill="#0080FF"/>
<path d="M1800 200H1850V250H1800V200Z" fill="#0062FF"/>
<path d="M1850 150H1900V200H1850V150Z" fill="#0044FF"/>
<path d="M1850 200H1900V250H1850V200Z" fill="#0044FF"/>
<path d="M1900 150H1950V200H1900V150Z" fill="#0026FF"/>
<path d="M1900 200H1950V250H1900V200Z" fill="#0026FF"/>
<path d="M1800 250H1850V300H1800V250Z" fill="#0062FF"/>
<path d="M1800 300H1850V350H1800V300Z" fill="#0062FF"/>
<path d="M1800 350H1850V400H1800V350Z" fill="#0062FF"/>
<path d="M1800 400H1850V450H1800V400Z" fill="#0062FF"/>
<path d="M1950 150H2000V200H1950V150Z" fill="#0009FF"/>
<path d="M1950 200H2000V250H1950V200Z" fill="#0009FF"/>
<path d="M1950 250H2000V300H1950V250Z" fill="#0009FF"/>
<path d="M1950 300H2000V350H1950V300Z" fill="#0009FF"/>
<path d="M1950 350H2000V400H1950V350Z" fill="#0009FF"/>
<path d="M1950 400H2000V450H1950V400Z" fill="#0009FF"/>
<path d="M2000 150H2050V200H2000V150Z" fill="#1500FF"/>
<path d="M2000 200H2050V250H2000V200Z" fill="#1500FF"/>
<path d="M2000 250H2050V300H2000V250Z" fill="#1500FF"/>
<path d="M2000 300H2050V350H2000V300Z" fill="#1500FF"/>
<path d="M2000 350H2050V400H2000V350Z" fill="#1500FF"/>
<path d="M2000 400H2050V450H2000V400Z" fill="#1500FF"/>
<path d="M2100 0H2150V50H2100V0Z" fill="#3300FF"/>
<path d="M2100 50H2150V100H2100V50Z" fill="#3300FF"/>
<path d="M2100 100H2150V150H2100V100Z" fill="#3300FF"/>
<path d="M2150 0H2200V50H2150V0Z" fill="#5100FF"/>
<path d="M2150 50H2200V100H2150V50Z" fill="#5100FF"/>
<path d="M2150 100H2200V150H2150V100Z" fill="#5100FF"/>
<path d="M2100 150H2150V200H2100V150Z" fill="#3300FF"/>
<path d="M2100 200H2150V250H2100V200Z" fill="#3300FF"/>
<path d="M2100 250H2150V300H2100V250Z" fill="#3300FF"/>
<path d="M2100 300H2150V350H2100V300Z" fill="#3300FF"/>
<path d="M2100 350H2150V400H2100V350Z" fill="#3300FF"/>
<path d="M2100 400H2150V450H2100V400Z" fill="#3300FF"/>
<path d="M2150 150H2200V200H2150V150Z" fill="#5100FF"/>
<path d="M2150 200H2200V250H2150V200Z" fill="#5100FF"/>
<path d="M2150 250H2200V300H2150V250Z" fill="#5100FF"/>
<path d="M2150 300H2200V350H2150V300Z" fill="#5100FF"/>
<path d="M2200 300H2250V350H2200V300Z" fill="#6F00FF"/>
<path d="M2200 250H2250V300H2200V250Z" fill="#6F00FF"/>
<path d="M2250 250H2300V300H2250V250Z" fill="#8C00FF"/>
<path d="M2250 300H2300V350H2250V300Z" fill="#8C00FF"/>
<path d="M2300 350H2350V400H2300V350Z" fill="#AA00FF"/>
<path d="M2350 400H2400V450H2350V400Z" fill="#C800FF"/>
<path d="M2350 350H2400V400H2350V350Z" fill="#C800FF"/>
<path d="M2300 150H2350V200H2300V150Z" fill="#AA00FF"/>
<path d="M2300 200H2350V250H2300V200Z" fill="#AA00FF"/>
<path d="M2350 150H2400V200H2350V150Z" fill="#C800FF"/>
<path d="M2150 350H2200V400H2150V350Z" fill="#5100FF"/>
<path d="M2150 400H2200V450H2150V400Z" fill="#5100FF"/>
<path d="M2450 350H2500V400H2450V350Z" fill="#E600FF"/>
<path d="M2450 400H2500V450H2450V400Z" fill="#E600FF"/>
<path d="M2500 400H2550V450H2500V400Z" fill="#FF00FB"/>
<path d="M2650 150H2700V200H2650V150Z" fill="#FF00A2"/>
<path d="M2700 150H2750V200H2700V150Z" fill="#FF0084"/>
<path d="M2700 200H2750V250H2700V200Z" fill="#FF0084"/>
<path d="M2550 150H2600V200H2550V150Z" fill="#FF00DD"/>
<path d="M2550 200H2600V250H2550V200Z" fill="#FF00DD"/>
<path d="M2550 250H2600V300H2550V250Z" fill="#FF00DD"/>
<path d="M2550 300H2600V350H2550V300Z" fill="#FF00DD"/>
<path d="M2550 350H2600V400H2550V350Z" fill="#FF00DD"/>
<path d="M2550 400H2600V450H2550V400Z" fill="#FF00DD"/>
<path d="M2600 150H2650V200H2600V150Z" fill="#FF00BF"/>
<path d="M2600 200H2650V250H2600V200Z" fill="#FF00BF"/>
<path d="M2600 250H2650V300H2600V250Z" fill="#FF00BF"/>
<path d="M2600 300H2650V350H2600V300Z" fill="#FF00BF"/>
<path d="M2600 350H2650V400H2600V350Z" fill="#FF00BF"/>
<path d="M2600 400H2650V450H2600V400Z" fill="#FF00BF"/>
<path d="M350 150H400V200H350V150Z" fill="#FFB300"/>
<path d="M350 200H400V250H350V200Z" fill="#FFB300"/>
<path d="M350 250H400V300H350V250Z" fill="#FFB300"/>
<path d="M350 300H400V350H350V300Z" fill="#FFB300"/>
<path d="M350 350H400V400H350V350Z" fill="#FFB300"/>
<path d="M350 400H400V450H350V400Z" fill="#FFB300"/>
<path d="M550 150H600V200H550V150Z" fill="#D5FF00"/>
<path d="M550 200H600V250H550V200Z" fill="#D5FF00"/>
<path d="M550 250H600V300H550V250Z" fill="#D5FF00"/>
<path d="M550 300H600V350H550V300Z" fill="#D5FF00"/>
<path d="M550 350H600V400H550V350Z" fill="#D5FF00"/>
<path d="M550 400H600V450H550V400Z" fill="#D5FF00"/>
<path d="M600 150H650V200H600V150Z" fill="#B7FF00"/>
<path d="M600 200H650V250H600V200Z" fill="#B7FF00"/>
<path d="M600 250H650V300H600V250Z" fill="#B7FF00"/>
<path d="M600 300H650V350H600V300Z" fill="#B7FF00"/>
<path d="M600 350H650V400H600V350Z" fill="#B7FF00"/>
<path d="M600 400H650V450H600V400Z" fill="#B7FF00"/>
<path d="M400 200H450V250H400V200Z" fill="#FFD000"/>
<path d="M450 150H500V200H450V150Z" fill="#FFEE00"/>
<path d="M450 200H500V250H450V200Z" fill="#FFEE00"/>
<path d="M500 150H550V200H500V150Z" fill="#F2FF00"/>
<path d="M500 200H550V250H500V200Z" fill="#F2FF00"/>
<path d="M400 250H450V300H400V250Z" fill="#FFD000"/>
<path d="M400 300H450V350H400V300Z" fill="#FFD000"/>
<path d="M400 350H450V400H400V350Z" fill="#FFD000"/>
<path d="M400 400H450V450H400V400Z" fill="#FFD000"/>
</svg>
